<svg width="32" height="32" viewBox="0 0 32 32" fill="none" xmlns="http://www.w3.org/2000/svg">
<path d="M31.5 0.5V31.5H0.5V9.70711L5.35355 4.85355L9.70711 0.5H31.5Z" fill="white" stroke="black"/>
<g clip-path="url(#clip0)">
<path d="M4.75339 24.3734L5.5956 20.3329C5.77377 19.5083 5.93573 18.4858 6.00051 17.7766C6.13009 18.2714 6.42162 19.1949 6.68076 19.8876L8.38138 24.4559C8.54335 24.8682 8.59194 24.9341 8.7539 24.9836C8.81869 24.9968 8.83164 24.9994 9.00009 25L10.8359 24.9999C11.3473 24.9967 11.3683 24.9515 11.4911 24.3734L13.4994 14.7916C13.5318 14.6267 13.548 14.4783 13.548 14.4123C13.548 14.2804 13.4994 14.1979 13.4023 14.099C13.3051 14.0165 13.2565 14 12.8516 14H11.5559C10.9404 14 10.9242 14.0165 10.7946 14.6267L10.0172 18.3374C9.87145 19.0795 9.6447 20.4483 9.57992 21.1905C9.41795 20.6133 9.12642 19.7227 8.88347 19.0795L7.23144 14.5442C7.06948 14.1319 7.03708 14.066 6.85892 14.0165C6.85082 14.0148 6.84354 14.0134 6.83665 14.012L6.81681 14.0084C6.77794 14.0021 6.73907 14.0005 6.61274 14.0001L6.50022 14C6.4856 14 6.47021 14 6.45401 14H4.80198C4.20272 14 4.18652 14.0165 4.05695 14.6267L2.0486 24.2085C2.0162 24.3734 2.00001 24.5218 2.00001 24.5878C2.00001 24.7197 2.0486 24.8022 2.14578 24.9011C2.23873 24.98 2.28723 24.9985 2.64563 25L4.08447 24.9999C4.60964 24.9967 4.63064 24.9515 4.75339 24.3734ZM15.1011 24.3734L15.8624 20.7617L19.8725 20.7615C20.3839 20.7583 20.4049 20.7131 20.5277 20.135L20.7059 19.3104C20.7707 19.03 20.7707 19.0135 20.7707 18.9311C20.7707 18.7991 20.7221 18.7167 20.6249 18.6177C20.5277 18.5353 20.4791 18.5188 20.0741 18.5188H16.3322L16.7696 16.3913H21.3863C21.9856 16.3913 22.0018 16.3748 22.1314 15.7811L22.342 14.7916C22.3992 14.5442 22.4059 14.5023 22.4067 14.4392L22.4068 14.4123C22.4068 14.2804 22.3582 14.1979 22.261 14.099C22.1638 14.0165 22.1152 14 21.7102 14H15.0849C14.4855 14 14.4693 14.0165 14.3397 14.6102L12.3311 24.2085C12.2987 24.3734 12.2825 24.5218 12.2825 24.5878C12.2825 24.7197 12.3311 24.8022 12.4283 24.9011C12.5213 24.98 12.5698 24.9985 12.9282 25L14.446 24.9999C14.9734 24.9968 14.9935 24.9523 15.1011 24.3734ZM24.7918 24.3734L26.463 16.3913H28.9941C29.5944 16.3913 29.6106 16.3748 29.7404 15.7811L29.9513 14.7916C29.9838 14.6102 30 14.4948 30 14.4123C30 14.2804 29.9513 14.1979 29.854 14.099C29.7566 14.0165 29.708 14 29.3023 14H21.5144C20.9141 14 20.8979 14.0165 20.7681 14.6102L20.5572 15.5997C20.5247 15.7646 20.5085 15.9131 20.5085 15.979C20.5085 16.111 20.5572 16.1934 20.6545 16.2924C20.7519 16.3748 20.8005 16.3913 21.2061 16.3913H23.6399L22.0174 24.2085C21.9687 24.4394 21.9525 24.5053 21.9525 24.5878C21.9525 24.7197 22.0012 24.8022 22.0985 24.9011C22.1916 24.98 22.2402 24.9985 22.5992 25L24.1217 24.9999C24.6478 24.9967 24.6689 24.9515 24.7918 24.3734Z" fill="black"/>
</g>
<path d="M0 10H10V0" stroke="black"/>
<defs>
<clipPath id="clip0">
<rect width="28" height="11" fill="white" transform="translate(2.00001 14)"/>
</clipPath>
</defs>
</svg>
